<svg width="142" height="42" viewBox="0 0 142 42" fill="none" xmlns="http://www.w3.org/2000/svg">
<g clip-path="url(#clip0_79_2)">
<path d="M20.9438 41.8877C32.5108 41.8877 41.8877 32.5108 41.8877 20.9438C41.8877 9.37688 32.5108 0 20.9438 0C9.37688 0 0 9.37688 0 20.9438C0 32.5108 9.37688 41.8877 20.9438 41.8877Z" fill="#31C48D"/>
<path d="M31.3091 2.54173C31.7205 2.11995 31.712 1.44451 31.2902 1.03311C30.8684 0.621704 30.1931 0.630125 29.7816 1.05192L31.3091 2.54173ZM7.24333 24.6069C7.25069 25.1961 7.73424 25.6678 8.32339 25.6604L17.9243 25.5407C18.5134 25.5334 18.985 25.0498 18.9777 24.4607C18.9703 23.8714 18.4868 23.3998 17.8976 23.4072L9.36355 23.5135L9.25715 14.9795C9.24979 14.3903 8.76623 13.9187 8.17709 13.926C7.58793 13.9334 7.11628 14.4169 7.12362 15.0061L7.24333 24.6069ZM29.7816 1.05192L7.54638 23.8488L9.07381 25.3385L31.3091 2.54173L29.7816 1.05192Z" fill="black"/>
<path d="M35.4295 16.2377C35.4042 15.649 34.9066 15.1923 34.3179 15.2176L24.7251 15.6287C24.1365 15.6538 23.6797 16.1515 23.705 16.7402C23.7302 17.3289 24.2278 17.7856 24.8165 17.7603L33.3434 17.3949L33.7089 25.9218C33.7341 26.5105 34.2318 26.9672 34.8205 26.9421C35.409 26.9168 35.8659 26.4192 35.8406 25.8305L35.4295 16.2377ZM11.0055 40.1556C10.6071 40.5897 10.636 41.2645 11.0701 41.663C11.5042 42.0614 12.179 42.0324 12.5774 41.5984L11.0055 40.1556ZM33.5777 15.562L11.0055 40.1556L12.5774 41.5984L35.1496 17.0048L33.5777 15.562Z" fill="black"/>
</g>
<path d="M70.2355 31C69.3082 31.1733 68.3982 31.247 67.5055 31.221C66.6215 31.2037 65.8285 31.0433 65.1265 30.74C64.4245 30.428 63.8915 29.9383 63.5275 29.271C63.2069 28.6643 63.0379 28.0447 63.0205 27.412C63.0032 26.7793 62.9945 26.0643 62.9945 25.267V13.06H66.1145V25.085C66.1145 25.6483 66.1189 26.1423 66.1275 26.567C66.1449 26.9917 66.2359 27.3383 66.4005 27.607C66.7125 28.127 67.2109 28.4173 67.8955 28.478C68.5802 28.5387 69.3602 28.504 70.2355 28.374V31ZM60.4465 19.417V16.96H70.2355V19.417H60.4465ZM73.2546 31V16.96H76.0236V20.379L75.6856 19.937C75.8589 19.469 76.0886 19.0443 76.3746 18.663C76.6692 18.273 77.0202 17.9523 77.4276 17.701C77.7742 17.467 78.1556 17.285 78.5716 17.155C78.9962 17.0163 79.4296 16.934 79.8716 16.908C80.3136 16.8733 80.7426 16.8907 81.1586 16.96V19.885C80.7426 19.7637 80.2616 19.7247 79.7156 19.768C79.1782 19.8113 78.6929 19.963 78.2596 20.223C77.8262 20.457 77.4709 20.756 77.1936 21.12C76.9249 21.484 76.7256 21.9 76.5956 22.368C76.4656 22.8273 76.4006 23.3257 76.4006 23.863V31H73.2546ZM87.2353 31.39C86.2213 31.39 85.3633 31.1993 84.6613 30.818C83.9593 30.428 83.4263 29.9123 83.0623 29.271C82.7069 28.6297 82.5293 27.9233 82.5293 27.152C82.5293 26.476 82.6419 25.8693 82.8673 25.332C83.0926 24.786 83.4393 24.318 83.9073 23.928C84.3753 23.5293 84.9819 23.2043 85.7273 22.953C86.2906 22.771 86.9493 22.6063 87.7033 22.459C88.4659 22.3117 89.2893 22.1773 90.1733 22.056C91.0659 21.926 91.9976 21.7873 92.9683 21.64L91.8503 22.277C91.8589 21.3063 91.6423 20.5913 91.2003 20.132C90.7583 19.6727 90.0129 19.443 88.9643 19.443C88.3316 19.443 87.7206 19.5903 87.1313 19.885C86.5419 20.1797 86.1303 20.6867 85.8963 21.406L83.0363 20.509C83.3829 19.3217 84.0416 18.3683 85.0123 17.649C85.9916 16.9297 87.3089 16.57 88.9643 16.57C90.2123 16.57 91.3086 16.7737 92.2533 17.181C93.2066 17.5883 93.9129 18.2557 94.3723 19.183C94.6236 19.677 94.7753 20.184 94.8273 20.704C94.8793 21.2153 94.9053 21.7743 94.9053 22.381V31H92.1623V27.958L92.6173 28.452C91.9846 29.466 91.2436 30.2113 90.3943 30.688C89.5536 31.156 88.5006 31.39 87.2353 31.39ZM87.8593 28.894C88.5699 28.894 89.1766 28.7683 89.6793 28.517C90.1819 28.2657 90.5806 27.958 90.8753 27.594C91.1786 27.23 91.3823 26.8877 91.4863 26.567C91.6509 26.1683 91.7419 25.7133 91.7593 25.202C91.7853 24.682 91.7983 24.2617 91.7983 23.941L92.7603 24.227C91.8156 24.3743 91.0053 24.5043 90.3293 24.617C89.6533 24.7297 89.0726 24.838 88.5873 24.942C88.1019 25.0373 87.6729 25.1457 87.3003 25.267C86.9363 25.397 86.6286 25.5487 86.3773 25.722C86.1259 25.8953 85.9309 26.0947 85.7923 26.32C85.6623 26.5453 85.5973 26.8097 85.5973 27.113C85.5973 27.4597 85.6839 27.7673 85.8573 28.036C86.0306 28.296 86.2819 28.504 86.6113 28.66C86.9493 28.816 87.3653 28.894 87.8593 28.894ZM103.919 31.39C102.627 31.39 101.501 31.065 100.539 30.415C99.5767 29.765 98.8314 28.881 98.3027 27.763C97.7741 26.645 97.5097 25.384 97.5097 23.98C97.5097 22.5587 97.7741 21.2933 98.3027 20.184C98.8401 19.066 99.5984 18.1863 100.578 17.545C101.557 16.895 102.71 16.57 104.036 16.57C105.37 16.57 106.488 16.895 107.39 17.545C108.3 18.1863 108.989 19.066 109.457 20.184C109.925 21.302 110.159 22.5673 110.159 23.98C110.159 25.3753 109.925 26.6363 109.457 27.763C108.989 28.881 108.291 29.765 107.364 30.415C106.436 31.065 105.288 31.39 103.919 31.39ZM104.4 28.582C105.24 28.582 105.916 28.3913 106.428 28.01C106.948 27.62 107.325 27.0783 107.559 26.385C107.801 25.6917 107.923 24.89 107.923 23.98C107.923 23.0613 107.801 22.2597 107.559 21.575C107.325 20.8817 106.956 20.3443 106.454 19.963C105.951 19.573 105.301 19.378 104.504 19.378C103.663 19.378 102.97 19.586 102.424 20.002C101.878 20.4093 101.475 20.964 101.215 21.666C100.955 22.3593 100.825 23.1307 100.825 23.98C100.825 24.838 100.95 25.618 101.202 26.32C101.462 27.0133 101.856 27.5637 102.385 27.971C102.913 28.3783 103.585 28.582 104.4 28.582ZM107.923 31V21.146H107.533V12.28H110.692V31H107.923Z" fill="white"/>
<path d="M114.337 31V12.28H126.427V15.218H117.47V19.833H124.867V22.771H117.47V28.062H126.427V31H114.337ZM128.246 31V30.571L135.682 19.703H129V16.96H140.557V17.402L133.147 28.257H140.245V31H128.246Z" fill="#31C48D"/>
<defs>
<clipPath id="clip0_79_2">
<rect width="41.8877" height="42" fill="white"/>
</clipPath>
</defs>
</svg>
