<svg width="24" height="24" viewBox="0 0 24 24" fill="none" xmlns="http://www.w3.org/2000/svg">
<g id="&#240;&#159;&#166;&#134; icon &#34;grid 3&#34;">
<g id="Group">
<path id="Vector" d="M15.1256 23.651H8.52536C2.55211 23.651 0 21.0989 0 15.1256V8.52536C0 2.55211 2.55211 0 8.52536 0H15.1256C21.0989 0 23.651 2.55211 23.651 8.52536V15.1256C23.651 21.0989 21.0989 23.651 15.1256 23.651ZM8.52536 1.65007C3.45415 1.65007 1.65007 3.45415 1.65007 8.52536V15.1256C1.65007 20.1969 3.45415 22.0009 8.52536 22.0009H15.1256C20.1969 22.0009 22.0009 20.1969 22.0009 15.1256V8.52536C22.0009 3.45415 20.1969 1.65007 15.1256 1.65007H8.52536Z" fill="#898989"/>
<path id="Vector_2" d="M11.8255 23.651C11.3745 23.651 11.0005 23.277 11.0005 22.826V0.825035C11.0005 0.374016 11.3745 0 11.8255 0C12.2765 0 12.6506 0.374016 12.6506 0.825035V22.826C12.6506 23.277 12.2765 23.651 11.8255 23.651Z" fill="#898989"/>
<path id="Vector_3" d="M11.8255 9.90031H0.825035C0.374016 9.90031 0 9.5263 0 9.07528C0 8.62426 0.374016 8.25024 0.825035 8.25024H11.8255C12.2765 8.25024 12.6505 8.62426 12.6505 9.07528C12.6505 9.5263 12.2765 9.90031 11.8255 9.90031Z" fill="#898989"/>
<path id="Vector_4" d="M22.826 15.4006H11.8255C11.3745 15.4006 11.0005 15.0265 11.0005 14.5755C11.0005 14.1245 11.3745 13.7505 11.8255 13.7505H22.826C23.277 13.7505 23.651 14.1245 23.651 14.5755C23.651 15.0265 23.277 15.4006 22.826 15.4006Z" fill="#898989"/>
</g>
</g>
</svg>
