<svg width="26" height="26" viewBox="0 0 26 26" fill="none" xmlns="http://www.w3.org/2000/svg">
<g id="&#240;&#159;&#166;&#134; icon &#34;message&#34;">
<g id="Group">
<path id="Vector" d="M8.67946 21.0847H8.08873C3.36291 21.0847 1 19.9033 1 13.996V8.08873C1 3.36291 3.36291 1 8.08873 1H17.5404C22.2662 1 24.6291 3.36291 24.6291 8.08873V13.996C24.6291 18.7218 22.2662 21.0847 17.5404 21.0847H16.9497C16.5834 21.0847 16.229 21.262 16.0045 21.5573L14.2323 23.9202C13.4525 24.9599 12.1766 24.9599 11.3968 23.9202L9.62463 21.5573C9.43559 21.2974 8.99846 21.0847 8.67946 21.0847Z" stroke="#898989" stroke-width="2" stroke-miterlimit="10" stroke-linecap="round" stroke-linejoin="round"/>
<g id="Group_2">
<path id="Vector_2" d="M17.5363 11.6331H17.5468" stroke="#898989" stroke-width="2" stroke-linecap="round" stroke-linejoin="round"/>
<path id="Vector_3" d="M12.8092 11.6331H12.8198" stroke="#898989" stroke-width="2" stroke-linecap="round" stroke-linejoin="round"/>
<path id="Vector_4" d="M8.08228 11.6331H8.09289" stroke="#898989" stroke-width="2" stroke-linecap="round" stroke-linejoin="round"/>
</g>
</g>
</g>
</svg>
