<svg width="26" height="26" viewBox="0 0 26 26" fill="none" xmlns="http://www.w3.org/2000/svg">
<g id="&#240;&#159;&#166;&#134; icon &#34;people&#34;">
<g id="Group">
<path id="Vector" d="M19.9517 7.11264C19.8806 7.1008 19.7977 7.1008 19.7266 7.11264C18.0918 7.05341 16.7888 5.71479 16.7888 4.05632C16.7888 2.36231 18.1511 1 19.8451 1C21.5391 1 22.9014 2.37416 22.9014 4.05632C22.8896 5.71479 21.5865 7.05341 19.9517 7.11264Z" stroke="#898989" stroke-width="1.77693" stroke-linecap="round" stroke-linejoin="round"/>
<path id="Vector_2" d="M18.7308 15.7365C20.3538 16.0089 22.1426 15.7246 23.3983 14.8836C25.0686 13.77 25.0686 11.9457 23.3983 10.8321C22.1307 9.99109 20.3182 9.70677 18.6953 9.99108" stroke="#898989" stroke-width="1.77693" stroke-linecap="round" stroke-linejoin="round"/>
<path id="Vector_3" d="M5.69885 7.11264C5.76993 7.1008 5.85285 7.1008 5.92393 7.11264C7.55871 7.05341 8.86179 5.71479 8.86179 4.05632C8.86179 2.36231 7.49947 1 5.80547 1C4.11146 1 2.74915 2.37416 2.74915 4.05632C2.76099 5.71479 4.06407 7.05341 5.69885 7.11264Z" stroke="#898989" stroke-width="1.77693" stroke-linecap="round" stroke-linejoin="round"/>
<path id="Vector_4" d="M6.92014 15.7365C5.29721 16.0089 3.50843 15.7246 2.25274 14.8836C0.582421 13.77 0.582421 11.9457 2.25274 10.8321C3.52028 9.99109 5.33275 9.70677 6.95568 9.99108" stroke="#898989" stroke-width="1.77693" stroke-linecap="round" stroke-linejoin="round"/>
<path id="Vector_5" d="M12.844 15.9618C12.7729 15.95 12.69 15.95 12.6189 15.9618C10.9841 15.9026 9.68103 14.5639 9.68103 12.9055C9.68103 11.2115 11.0434 9.84912 12.7374 9.84912C14.4314 9.84912 15.7937 11.2233 15.7937 12.9055C15.7819 14.5639 14.4788 15.9144 12.844 15.9618Z" stroke="#898989" stroke-width="1.77693" stroke-linecap="round" stroke-linejoin="round"/>
<path id="Vector_6" d="M16.2919 19.6932C14.4084 18.4375 11.2928 18.4375 9.39745 19.6932C7.72714 20.8068 7.72714 22.6311 9.39745 23.7446C11.2928 25.0122 14.3965 25.0122 16.2919 23.7446" stroke="#898989" stroke-width="1.77693" stroke-linecap="round" stroke-linejoin="round"/>
</g>
</g>
</svg>
