<svg width="26" height="25" viewBox="0 0 26 25" fill="none" xmlns="http://www.w3.org/2000/svg">
<g id="&#240;&#159;&#166;&#134; icon &#34;home 2&#34;">
<path id="Vector" d="M14.7904 1.80378L14.791 1.80415L21.9916 6.8421C22.5176 7.21033 23.037 7.83199 23.4257 8.57652C23.8144 9.32104 24.0279 10.1031 24.0279 10.7484V19.2243C24.0279 21.8599 21.8878 24 19.2522 24H5.77567C3.1429 24 1 21.8502 1 19.2118V10.5858C1 9.9894 1.19267 9.24742 1.54722 8.52733C1.9015 7.8078 2.37483 7.19669 2.85279 6.82387L2.85301 6.82371L9.11348 1.93778C9.11391 1.93745 9.11434 1.93712 9.11477 1.93678C10.6561 0.743515 13.1871 0.680442 14.7904 1.80378ZM12.5139 21.937C13.5788 21.937 14.4515 21.0643 14.4515 19.9994V16.249C14.4515 15.1841 13.5788 14.3114 12.5139 14.3114C11.4491 14.3114 10.5763 15.1841 10.5763 16.249V19.9994C10.5763 21.0643 11.4491 21.937 12.5139 21.937Z" stroke="white" stroke-width="2"/>
</g>
</svg>
