<svg width="25" height="24" viewBox="0 0 25 24" fill="none" xmlns="http://www.w3.org/2000/svg">
<g id="&#240;&#159;&#166;&#134; icon &#34;people&#34;">
<g id="&#240;&#159;&#166;&#134; icon &#34;logout 1&#34;">
<g id="Group">
<path id="Vector" d="M19.5439 16.4138C19.2866 16.4138 19.0293 16.319 18.8261 16.1159C18.4334 15.7232 18.4334 15.0731 18.8261 14.6804L21.5753 11.9312L18.8261 9.18195C18.4334 8.78926 18.4334 8.1392 18.8261 7.74646C19.2189 7.35372 19.8689 7.35372 20.2617 7.74646L23.7286 11.2134C24.1214 11.6061 24.1214 12.2562 23.7286 12.6489L20.2617 16.1159C20.0585 16.319 19.8012 16.4138 19.5439 16.4138Z" fill="#898989"/>
<path id="Vector_2" d="M22.9146 12.947H9.14145C8.58619 12.947 8.12573 12.4865 8.12573 11.9312C8.12573 11.376 8.58619 10.9155 9.14145 10.9155H22.9146C23.4698 10.9155 23.9303 11.376 23.9303 11.9312C23.9303 12.4865 23.4698 12.947 22.9146 12.947Z" fill="#898989"/>
<path id="Vector_3" d="M11.85 23.7C4.87543 23.7 0 18.8246 0 11.85C0 4.87543 4.87543 0 11.85 0C12.4053 0 12.8658 0.460457 12.8658 1.01571C12.8658 1.57097 12.4053 2.03143 11.85 2.03143C6.0672 2.03143 2.03143 6.0672 2.03143 11.85C2.03143 17.6328 6.0672 21.6686 11.85 21.6686C12.4053 21.6686 12.8658 22.129 12.8658 22.6843C12.8658 23.2395 12.4053 23.7 11.85 23.7Z" fill="#898989"/>
</g>
</g>
</g>
</svg>
